{"title":"Queen of the South S01E09 1080p  WEB-DL HEVC DD5.1x265","uid":15756887,"size":724054495,"categoryP":"video","categoryS":"hd___tv_shows","magnet":"?xt=urn:btih:191c2182116038e9d5d0e04dde5092329ebe971b&amp;dn=Queen+of+the+South+S01E09+1080p++WEB-DL+HEVC+DD5.1x265&amp;tr=udp%3A%2F%2Ftracker.leechers-paradise.org%3A6969&amp;tr=udp%3A%2F%2Fzer0day.ch%3A1337&amp;tr=udp%3A%2F%2Fopen.demonii.com%3A1337&amp;tr=udp%3A%2F%2Ftracker.coppersurfer.tk%3A6969&amp;tr=udp%3A%2F%2Fexodus.desync.com%3A6969","seeders":0,"leechers":8,"uploader":"nayhtut","files":1,"time":1473067682,"description":"Source:  Queen of the South S01E09 1080p WEB-DL DD5.1 H264-RARBG (1.6 GB)\r\n\r\n\r\nComplete name                            : Queen.of.the.South.S01E09.1080p.WEB-DL.HEVC.DD5.1.x265.mkv\r\nFormat                                   : Matroska\r\nFormat version                           : Version 4 / Version 2\r\nFile size                                : 691 MiB\r\nDuration                                 : 42mn 16s\r\nOverall bit rate                         : 2 284 Kbps\r\nWriting application                      : Lavf57.25.100\r\nWriting library                          : Lavf57.25.100\r\n\r\nVideo\r\nID                                       : 1\r\nFormat                                   : V_MPEGH/ISO/HEVC\r\nCodec ID                                 : V_MPEGH/ISO/HEVC\r\nDuration                                 : 42mn 16s\r\nBit rate                                 : 1 854 Kbps\r\nWidth                                    : 1 916 pixels\r\nHeight                                   : 1 076 pixels\r\nDisplay aspect ratio                     : 16:9\r\nFrame rate                               : 25.000 fps\r\nBits/(Pixel*Frame)                       : 0.036\r\nStream size                              : 561 MiB (81%)\r\nWriting library                          : Lavc57.48.101 libx265\r\nLanguage                                 : English\r\nDefault                                  : Yes\r\nForced                                   : No\r\nDURATION                                 : 00:42:16.611000000\r\n\r\nAudio\r\n\r\nID                                       : 2\r\nFormat                                   : AC-3\r\nFormat/Info                              : Audio Coding 3\r\nMode extension                           : CM (complete main)\r\nFormat settings, Endianness              : Big\r\nCodec ID                                 : A_AC3\r\nDuration                                 : 42mn 16s\r\nBit rate mode                            : Constant\r\nBit rate                                 : 384 Kbps\r\nChannel(s)                               : 6 channels\r\nChannel positions                        : Front: L C R, Side: L R, LFE\r\nSampling rate                            : 48.0 KHz\r\nBit depth                                : 16 bits\r\nCompression mode                         : Lossy\r\nStream size                              : 116 MiB (17%)\r\nWriting library                          : Lavc57.24.102 ac3\r\nLanguage                                 : English\r\nDefault                                  : Yes\r\nForced                                   : No\r\nDURATION                                 : 00:42:16.607000000\r\n\r\nText\r\n\r\nID                                       : 3\r\nFormat                                   : ASS\r\nCodec ID                                 : S_TEXT/ASS\r\nCodec ID/Info                            : Advanced Sub Station Alpha\r\nCompression mode                         : Lossless\r\nWriting library                          : Lavc57.48.101 ssa\r\nDefault                                  : Yes\r\nForced                                   : No\r\nDURATION                                 : 00:41:43.650000000","torrent":{"xt":"urn:btih:191c2182116038e9d5d0e04dde5092329ebe971b","amp;dn":"Queen+of+the+South+S01E09+1080p++WEB-DL+HEVC+DD5.1x265","amp;tr":["udp%3A%2F%2Ftracker.leechers-paradise.org%3A6969","udp%3A%2F%2Fzer0day.ch%3A1337","udp%3A%2F%2Fopen.demonii.com%3A1337","udp%3A%2F%2Ftracker.coppersurfer.tk%3A6969","udp%3A%2F%2Fexodus.desync.com%3A6969"],"infoHash":"191c2182116038e9d5d0e04dde5092329ebe971b","infoHashBuffer":{"type":"Buffer","data":[25,28,33,130,17,96,56,233,213,208,224,77,222,80,146,50,158,190,151,27]},"announce":[],"urlList":[]}}